<svg xmlns="http://www.w3.org/2000/svg">
	<defs>
		<g id="markdown" fill="currentcolor">
			<rect transform="scale(0.3077),translate(0 40)" width="198" height="118" x="5" y="5" ry="10" stroke="currentcolor" stroke-width="10" fill="none"/>
			<path transform="scale(0.3077),translate(0 40)" d="M30 98V30h20l20 25 20-25h20v68H90V59L70 84 50 59v39zm125 0l-30-33h20V30h20v35h20z"/>
			<!--
				Dustin Curtis
				https://github.com/dcurtis/markdown-mark/tree/master/svg
				https://github.com/dcurtis/markdown-mark/blob/master/LICENSE
			-->
		</g>

		<g id="git" enable-background="new 0 0 97 97">
			<path transform="scale(0.6598)" fill="#F05133" d="M92.71,44.408L52.591,4.291c-2.31-2.311-6.057-2.311-8.369,0l-8.33,8.332L46.459,23.19   c2.456-0.83,5.272-0.273,7.229,1.685c1.969,1.97,2.521,4.81,1.67,7.275l10.186,10.185c2.465-0.85,5.307-0.3,7.275,1.671   c2.75,2.75,2.75,7.206,0,9.958c-2.752,2.751-7.208,2.751-9.961,0c-2.068-2.07-2.58-5.11-1.531-7.658l-9.5-9.499v24.997   c0.67,0.332,1.303,0.774,1.861,1.332c2.75,2.75,2.75,7.206,0,9.959c-2.75,2.749-7.209,2.749-9.957,0c-2.75-2.754-2.75-7.21,0-9.959   c0.68-0.679,1.467-1.193,2.307-1.537V36.369c-0.84-0.344-1.625-0.853-2.307-1.537c-2.083-2.082-2.584-5.14-1.516-7.698   L31.798,16.715L4.288,44.222c-2.311,2.313-2.311,6.06,0,8.371l40.121,40.118c2.31,2.311,6.056,2.311,8.369,0L92.71,52.779   C95.021,50.468,95.021,46.719,92.71,44.408z"/>
			<!--
				Jason Long
				http://git-scm.com/downloads/logos
				https://creativecommons.org/licenses/by/3.0/
			-->
		</g>

		<g id="calendar" fill="none">
			<path transform="scale(2.66)" d="M8 9C7.44772 9 7 9.44771 7 10C7 10.5523 7.44772 11 8 11H16C16.5523 11 17 10.5523 17 10C17 9.44771 16.5523 9 16 9H8Z" fill="currentColor"/>
			<path transform="scale(2.66)" fill-rule="evenodd" clip-rule="evenodd" d="M6 3C4.34315 3 3 4.34315 3 6V18C3 19.6569 4.34315 21 6 21H18C19.6569 21 21 19.6569 21 18V6C21 4.34315 19.6569 3 18 3H6ZM5 18V7H19V18C19 18.5523 18.5523 19 18 19H6C5.44772 19 5 18.5523 5 18Z" fill="currentColor"/>
			<!--
				CSS GG
				https://css.gg/calendar
				https://css.gg/doc/licence
			-->
		</g>

		<g id="tag" fill="none">
			<path transform="scale(2.66)" fill-rule="evenodd" clip-rule="evenodd" d="M2 8V16C2 16.5523 2.44772 17 3 17H16.6202C16.9121 17 17.1895 16.8724 17.3795 16.6508L20.808 12.6508C21.129 12.2763 21.129 11.7237 20.808 11.3492L17.3795 7.34921C17.1895 7.12756 16.9121 7 16.6202 7H3C2.44772 7 2 7.44772 2 8ZM0 8V16C0 17.6569 1.34315 19 3 19H16.6202C17.496 19 18.328 18.6173 18.898 17.9524L22.3265 13.9524C23.2895 12.8289 23.2895 11.1711 22.3265 10.0476L18.898 6.04763C18.328 5.38269 17.496 5 16.6202 5H3C1.34315 5 0 6.34315 0 8Z" fill="currentColor"/>
			<path transform="scale(2.66)" fill-rule="evenodd" clip-rule="evenodd" d="M15 13C15.5523 13 16 12.5523 16 12C16 11.4477 15.5523 11 15 11C14.4477 11 14 11.4477 14 12C14 12.5523 14.4477 13 15 13ZM15 15C16.6569 15 18 13.6569 18 12C18 10.3431 16.6569 9 15 9C13.3431 9 12 10.3431 12 12C12 13.6569 13.3431 15 15 15Z" fill="currentColor"/>
			<!--
				CSS GG
				https://css.gg/tag
				https://css.gg/doc/licence
			-->
		</g>

		<g id="git-pull" fill="none">
			<path transform="scale(2.66)" d="M7 5C7 3.89543 7.89543 3 9 3C10.1046 3 11 3.89543 11 5C11 5.34168 10.9143 5.66336 10.7633 5.9447H11.3438C13.5529 5.9447 15.3438 7.73556 15.3438 9.9447V11.2244C15.9301 11.5731 16.323 12.213 16.323 12.9447C16.323 14.0493 15.4276 14.9447 14.323 14.9447C13.2184 14.9447 12.323 14.0493 12.323 12.9447C12.323 12.1959 12.7345 11.5432 13.3438 11.2004V9.9447C13.3438 8.84013 12.4483 7.9447 11.3438 7.9447H10V17.2676C10.5978 17.6134 11 18.2597 11 19C11 20.1046 10.1046 21 9 21C7.89543 21 7 20.1046 7 19C7 18.2597 7.4022 17.6134 8 17.2676V6.73244C7.4022 6.38663 7 5.74028 7 5Z" fill="currentColor"/>
			<!--
				CSS GG
				https://css.gg/code-slash
				https://css.gg/doc/licence
			-->
		</g>

		<g id="edit-markup" fill="none">
			<path transform="scale(2.66)" fill-rule="evenodd" clip-rule="evenodd" d="M12 24C18.6274 24 24 18.6274 24 12C24 5.37258 18.6274 0 12 0C5.37258 0 0 5.37258 0 12C0 18.6274 5.37258 24 12 24ZM18.5793 19.531C20.6758 17.698 22 15.0036 22 12C22 6.47715 17.5228 2 12 2C6.47715 2 2 6.47715 2 12C2 14.9616 3.28743 17.6225 5.33317 19.4535L6.99999 10.9738H9.17026L12 6.07251L14.8297 10.9738H17L18.5793 19.531ZM16.0919 21.1272L15.2056 12.9738H8.79438L7.90814 21.1272C9.15715 21.688 10.5421 22 12 22C13.4579 22 14.8428 21.688 16.0919 21.1272Z" fill="currentColor"/>
			<!--
				CSS GG
				https://css.gg/edit-markup
				https://css.gg/doc/licence
			-->
		</g>

		<g id="gg-menu" fill="none">
			<path transform="scale(2.66)" d="M2 6C2 5.44772 2.44772 5 3 5H21C21.5523 5 22 5.44772 22 6C22 6.55228 21.5523 7 21 7H3C2.44772 7 2 6.55228 2 6Z" fill="currentColor"/>
			<path transform="scale(2.66)" d="M2 12.0322C2 11.4799 2.44772 11.0322 3 11.0322H21C21.5523 11.0322 22 11.4799 22 12.0322C22 12.5845 21.5523 13.0322 21 13.0322H3C2.44772 13.0322 2 12.5845 2 12.0322Z" fill="currentColor"/>
			<path transform="scale(2.66)" d="M3 17.0645C2.44772 17.0645 2 17.5122 2 18.0645C2 18.6167 2.44772 19.0645 3 19.0645H21C21.5523 19.0645 22 18.6167 22 18.0645C22 17.5122 21.5523 17.0645 21 17.0645H3Z" fill="currentColor"/>
			<!--
				CSS GG
				https://css.gg/menu
				https://css.gg/doc/licence
			-->
		</g>
	</defs>
</svg>
